<svg width="22" height="22" viewBox="0 0 22 22" fill="none" xmlns="http://www.w3.org/2000/svg">
<path d="M18.2 11.711V16.6C18.2 19.137 16.137 21.2 13.6 21.2H5.6C3.063 21.2 1 19.137 1 16.6V8.6C1 6.063 3.063 4 5.6 4H10.489C10.821 4 11.089 4.269 11.089 4.6C11.089 4.931 10.82 5.2 10.489 5.2H5.6C3.725 5.2 2.2 6.725 2.2 8.6V16.6C2.2 18.475 3.725 20 5.6 20H13.6C15.475 20 17 18.475 17 16.6V11.711C17 11.379 17.269 11.111 17.6 11.111C17.931 11.111 18.2 11.38 18.2 11.711ZM20.6 4H18.2V1.6C18.2 1.268 17.931 1 17.6 1C17.269 1 17 1.269 17 1.6V4H14.6C14.268 4 14 4.269 14 4.6C14 4.931 14.269 5.2 14.6 5.2H17V7.6C17 7.932 17.269 8.2 17.6 8.2C17.931 8.2 18.2 7.931 18.2 7.6V5.2H20.6C20.932 5.2 21.2 4.931 21.2 4.6C21.2 4.269 20.932 4 20.6 4Z" fill="white" stroke="white"/>
</svg>
