<svg id="Layer_1" data-name="Layer 1" xmlns="http://www.w3.org/2000/svg" viewBox="0 0 80.7 80.7"><defs><style>.cls-1{fill:#ff4500;}.cls-2{fill:#fff;}</style></defs><circle class="cls-1" cx="40.35" cy="40.35" r="40.35"/><path class="cls-2" d="M19.82,53.89l.1-27.95c0-1.35,1.55-2.44,3.45-2.43h2.12c1.9,0,3.44,1.1,3.43,2.44l-.09,28c0,1.35-1.55,2.44-3.45,2.43H23.25C21.35,56.34,19.82,55.24,19.82,53.89Z"/><path class="cls-2" d="M36,57.92l.09-36.07a3.31,3.31,0,0,1,3.45-3.14h2.13a3.3,3.3,0,0,1,3.43,3.16L45,57.94a3.31,3.31,0,0,1-3.45,3.14H39.44A3.29,3.29,0,0,1,36,57.92Z"/><path class="cls-2" d="M52.2,54l.09-28c0-1.35,1.55-2.44,3.45-2.43h2.13c1.9,0,3.43,1.1,3.43,2.45l-.1,28c0,1.35-1.55,2.44-3.45,2.43H55.63C53.73,56.41,52.19,55.31,52.2,54Z"/></svg>