<svg width="12" height="11" viewBox="0 0 12 11" fill="none" xmlns="http://www.w3.org/2000/svg">
<path d="M5.43864 3.53561V1.32076C5.43865 1.26037 5.42196 1.20115 5.39042 1.14964C5.35887 1.09814 5.3137 1.05636 5.2599 1.02892C5.2061 1.00148 5.14576 0.989452 5.08555 0.994161C5.02534 0.998871 4.9676 1.02014 4.91872 1.05561L0.135476 4.93419C0.0936449 4.96343 0.0594863 5.00232 0.035901 5.04758C0.0123156 5.09284 0 5.14312 0 5.19415C0 5.24518 0.0123156 5.29547 0.035901 5.34072C0.0594863 5.38598 0.0936449 5.42488 0.135476 5.45411L4.92912 9.3171C4.978 9.35257 5.03574 9.37383 5.09595 9.37854C5.15616 9.38325 5.2165 9.37122 5.2703 9.34378C5.3241 9.31634 5.36927 9.27456 5.40081 9.22306C5.43236 9.17156 5.44905 9.11234 5.44904 9.05194V7.02426C8.44376 7.02426 10.9862 8.36045 11.9168 10.6637C11.9701 10.351 11.9979 10.0346 12 9.71744C11.9948 6.30677 9.06246 3.53561 5.43864 3.53561Z" fill="#929DA5"/>
</svg>
