<svg width="20" height="17" viewBox="0 0 20 17" fill="none" xmlns="http://www.w3.org/2000/svg">
<path d="M10.9261 4.23375V0.545526C10.9261 0.444955 10.9539 0.346338 11.0064 0.260573C11.059 0.174808 11.1342 0.105235 11.2238 0.0595429C11.3134 0.0138509 11.4138 -0.00618101 11.5141 0.00166086C11.6144 0.00950272 11.7105 0.0449132 11.7919 0.103979L19.7744 6.56269C19.8441 6.61137 19.9009 6.67615 19.9402 6.75151C19.9795 6.82687 20 6.9106 20 6.99558C20 7.08057 19.9795 7.16429 19.9402 7.23966C19.9009 7.31502 19.8441 7.37979 19.7744 7.42847L11.7746 13.9045C11.6932 13.9636 11.5971 13.999 11.4968 14.0068C11.3965 14.0147 11.296 13.9946 11.2065 13.9489C11.1169 13.9032 11.0416 13.8337 10.9891 13.7479C10.9366 13.6621 10.9088 13.5635 10.9088 13.463V10.0431C5.92193 10.0431 1.68827 12.2682 0.138525 16.1036C0.049857 15.5829 0.00353049 15.056 0 14.5279C0.00865779 8.84835 4.89165 4.23375 10.9261 4.23375Z" fill="#447BFE"/>
</svg>
